<?xml version="1.0" encoding="iso-8859-1"?>
<!-- Uploaded to: SVG Repo, www.svgrepo.com, Generator: SVG Repo Mixer Tools -->
<svg fill="#000000" height="800px" width="800px" version="1.1" id="Layer_1" xmlns="http://www.w3.org/2000/svg" xmlns:xlink="http://www.w3.org/1999/xlink" 
	 viewBox="0 0 508 508" xml:space="preserve">
<g>
	<g>
		<path d="M476.4,294.8c-17.2,0-31.6,14-31.6,31.6v82.4c0,2.4,1.6,4,4,4c2.4,0,4-1.6,4-4v-82.4c0-12.8,10.8-23.6,23.6-23.6
			c12.8,0,23.6,10.4,23.6,23.6v94.4c0,43.2-36,78.4-80.8,78.4h-95.6c-12.8,0-23.6-10.8-23.6-23.6c0-12.8,10.4-23.6,23.6-23.6h84
			c1.6,0,2.8-0.8,3.6-2.4c0.8-1.6,0.4-3.2-0.8-4.4L299.2,334.4c-9.6-9.2-9.2-24,0-33.2c9.6-9.2,24.8-9.2,34,0l67.6,67.2
			c1.6,1.6,4,1.6,5.6,0c1.6-1.6,1.6-4,0-5.6L338.8,296c-12.4-12.4-32.8-12.4-45.2,0c-12.4,12.8-12.4,32.4,0,44.8l104.4,104h-74.4
			c-17.2,0-31.6,14.4-31.6,31.6s14,31.6,31.6,31.6h95.6c48.8,0,88.8-38.8,88.8-86.4v-95.2C508,309.2,493.6,294.8,476.4,294.8z"/>
	</g>
</g>
<g>
	<g>
		<path d="M181.6,444.4h-74.4l104.4-103.6c6-6,9.2-14,9.2-22.4c0-8.4-3.2-16.4-9.2-22.4s-14-9.2-22.4-9.2c-8.4,0-16.4,3.2-22.4,9.2
			L100,362.8c-1.6,1.6-1.6,4,0,5.6c1.6,1.6,4,1.6,5.6,0l67.2-66.8c4.4-4.4,10-6.8,16.4-6.8s12.4,2.8,16.8,7.2
			c4.4,4.4,6.8,10.4,6.8,16.8c-0.4,6.4-2.8,12.4-7.2,16.8L94.4,446c-1.2,1.2-1.6,2.8-0.8,4.4c0.4,1.6,2,2.4,3.6,2.4h84
			c12.8,0,23.6,10.8,23.6,23.6c0,12.8-10.4,23.6-23.6,23.6H85.6C42,500,8,465.6,8,421.6v-95.2c0-12.8,10.8-23.6,23.6-23.6
			c12.8,0,23.6,10.4,23.6,23.6v82.4c0,2.4,1.6,4,4,4c2.4,0,4-1.6,4-4v-82.4c0-17.2-14.4-31.6-31.6-31.6c-17.2,0-31.6,14-31.6,31.6
			v95.2C0,470,37.6,508,85.6,508h95.6c17.6,0,32-14.8,32-32S199.2,444.4,181.6,444.4z"/>
	</g>
</g>
<g>
	<g>
		<path d="M211.2,168L106.8,63.2h73.6c17.2,0,31.6-14.4,31.6-31.6C212,14.4,198,0,180.4,0h-49.6c-2.4,0-4,1.6-4,4s1.6,4,4,4h50
			c13.2,0,23.6,11.2,23.6,24S194,55.6,180.8,55.6H97.2c-1.6,0-2.8,0.8-3.6,2.4c-0.8,1.6-0.4,3.2,0.8,4.4L206,174
			c9.2,9.2,9.2,24.8,0,34c-4.8,4.4-10.4,6.8-16.8,6.8c-6,0-12-2.4-16.4-6.8L62.4,96.8c-1.2-1.2-2.8-1.6-4.4-0.8
			c-1.6,0.4-2.4,2-2.4,3.6v83.6c0,12.8-10.8,23.6-23.6,23.6S8.4,196.4,8.4,183.2V88C8.4,44,44,8.4,87.6,8.4c2.4,0,4-1.6,4-4
			c0-2.4-1.6-4-4-4C39.6,0.4,0.4,39.6,0.4,88v95.2c0,17.2,14.4,31.6,31.6,31.6s31.6-14,31.6-31.6v-74l103.6,104.4
			c6,6,13.6,9.2,22,9.2s16.4-3.2,22-9.6C223.6,200.8,223.6,180.4,211.2,168z"/>
	</g>
</g>
<g>
	<g>
		<path d="M419.2,0h-50c-2.4,0-4,1.6-4,4s1.6,4,4,4h50C462.8,8,500,44.4,500,88v95.6c0,12.8-10.8,23.6-23.6,23.6
			c-12.8,0-23.6-10.4-23.6-23.6V100c0-1.6-0.8-2.8-2.4-3.6c-1.6-0.8-3.2-0.4-4.4,0.8L334,208.4c-4.4,4.4-10.8,6.8-17.2,6.8
			s-12.8-2.4-17.2-6.8c-4.8-4.8-7.2-10.8-7.2-17.2c0-6.8,2.4-12.8,6.8-17.2L410.4,62.4c1.2-1.2,1.6-2.8,0.8-4.4
			c-0.4-1.6-2-2.4-3.6-2.4H324c-13.2,0-23.6-10-23.6-23.2c0-13.2,11.2-24,24.4-24c2.4,0,4-1.6,4-4c0-2.4-1.6-4-4-4
			c-18,0-32.4,14.4-32.4,32c0,17.2,14,31.2,31.6,31.2h74L293.6,168c-6,6-9.2,14-9.2,22.8s3.2,16.8,9.2,22.8s14.4,9.2,22.8,9.2
			c8.8,0,16.8-3.2,22.8-9.2l105.6-104.4v74c0,17.2,14.4,31.6,31.6,31.6s31.6-14,31.6-31.6V88C508,40.4,467.2,0,419.2,0z"/>
	</g>
</g>
</svg>